<svg width="400" height="400" viewBox="0 0 400 400" xmlns="http://www.w3.org/2000/svg">
  <!-- DROP SHADOW FILTER -->
  <defs>
    <filter id="dropShadow" x="-20%" y="-20%" width="140%" height="140%">
      <feGaussianBlur in="SourceAlpha" stdDeviation="6" result="blur" />
      <feOffset in="blur" dx="0" dy="4" result="offsetBlur" />
      <feMerge>
        <feMergeNode in="offsetBlur" />
        <feMergeNode in="SourceGraphic" />
      </feMerge>
    </filter>

    <!-- BACKGROUND GRADIENT -->
    <linearGradient id="bgGrad" x1="0" y1="0" x2="1" y2="1">
      <stop offset="0%" stop-color="#e0f7ff" />
      <stop offset="100%" stop-color="#c0ecff" />
    </linearGradient>

    <!-- CORE (MOON) GRADIENT -->
    <radialGradient id="coreGrad" cx="50%" cy="50%" r="50%">
      <stop offset="0%" stop-color="#80c1ff" stop-opacity="0.7" />
      <stop offset="100%" stop-color="#40a8ff" stop-opacity="0.3" />
    </radialGradient>
  </defs>

  <!-- BACKGROUND PANEL -->
  <rect width="100%" height="100%" rx="16" fill="url(#bgGrad)" />

  <!-- CENTRAL MOON WITH PULSE -->
  <g filter="url(#dropShadow)">
    <circle cx="200" cy="200" r="160" fill="url(#coreGrad)">
      <animate attributeName="r"
               values="160;175;160"
               dur="6s"
               repeatCount="indefinite" />
    </circle>
    <circle cx="200" cy="200" r="120" fill="#ffffff" opacity="0.1" />
    <circle cx="200" cy="200" r="80"  fill="#ffffff" opacity="0.05" />
  </g>

  <!-- FAINT DIAGONAL GUIDES -->
  <line x1="0"   y1="0"   x2="400" y2="400"
        stroke="#b5dfff" stroke-width="1" opacity="0.2" />
  <line x1="400" y1="0"   x2="0"   y2="400"
        stroke="#b5dfff" stroke-width="1" opacity="0.2" />

  <!-- SIDE INDICATORS -->
  <g stroke="none">
    <!-- Left -->
    <circle cx="60"  cy="180" r="6" fill="#407ec9" />
    <circle cx="60"  cy="200" r="6" fill="#2fcbdc" />
    <circle cx="60"  cy="220" r="6" fill="#407ec9" />
    <!-- Right -->
    <circle cx="340" cy="180" r="6" fill="#407ec9" />
    <circle cx="340" cy="200" r="6" fill="#2fcbdc" />
    <circle cx="340" cy="220" r="6" fill="#407ec9" />
  </g>

  <!-- ZOOM BUTTONS -->
  <g class="zoom-button" filter="url(#dropShadow)">
    <!-- Zoom Out (“–”) -->
    <circle cx="100" cy="100" r="20" fill="#2fcbdc" opacity="0.95" />
    <rect   x="90"  y="98" width="20" height="4" fill="#fff" rx="2" />
    <!-- Zoom In (“+”) -->
    <circle cx="300" cy="300" r="20" fill="#2fcbdc" opacity="0.95" />
    <rect   x="290" y="298" width="20" height="4" fill="#fff" rx="2" />
    <rect   x="298" y="290" width="4"  height="20" fill="#fff" rx="2" />
  </g>
</svg>
